<svg width="171" height="72" viewBox="0 0 171 72" fill="none" xmlns="http://www.w3.org/2000/svg">
<path d="M170.529 66.8489C170.997 66.557 171.141 65.9403 170.849 65.4714L166.092 57.8314C165.8 57.3625 165.183 57.2191 164.714 57.511C164.246 57.8029 164.102 58.4197 164.394 58.8885L168.623 65.6797L161.831 69.9081C161.363 70.2 161.219 70.8167 161.511 71.2856C161.803 71.7544 162.42 71.8978 162.888 71.6059L170.529 66.8489ZM0.341495 1.75258C10.4609 10.6071 26.1393 19.0939 43.8812 26.8384C61.643 34.5915 81.5534 41.6346 100.196 47.5778C118.842 53.5218 136.234 58.3702 148.963 61.7325C155.329 63.4137 160.529 64.7237 164.14 65.6135C165.945 66.0584 167.352 66.3983 168.309 66.6271C168.787 66.7415 169.153 66.8281 169.399 66.8862C169.522 66.9152 169.616 66.9371 169.678 66.9518C169.71 66.9591 169.733 66.9647 169.749 66.9684C169.757 66.9702 169.763 66.9716 169.767 66.9725C169.769 66.973 169.771 66.9734 169.772 66.9736C169.773 66.9739 169.773 66.974 170 66C170.227 65.026 170.226 65.0259 170.225 65.0257C170.224 65.0255 170.223 65.0251 170.221 65.0247C170.217 65.0238 170.211 65.0225 170.204 65.0207C170.188 65.0171 170.165 65.0117 170.134 65.0045C170.073 64.99 169.98 64.9684 169.858 64.9396C169.614 64.882 169.25 64.7958 168.774 64.682C167.822 64.4542 166.419 64.1154 164.618 63.6716C161.017 62.7841 155.828 61.4769 149.474 59.7988C136.766 56.4423 119.408 51.6032 100.804 45.6722C82.1966 39.7404 62.357 32.721 44.6813 25.0054C26.9857 17.2811 11.5391 8.89293 1.6585 0.247423L0.341495 1.75258Z" fill="#EC6C8B"/>
</svg>
