<svg width="44" height="35" viewBox="0 0 44 35" fill="none" xmlns="http://www.w3.org/2000/svg">
<path fill-rule="evenodd" clip-rule="evenodd" d="M31.6927 17.7213L25.4151 11.2721C25.0299 10.8764 24.3968 10.8678 24.0011 11.253C23.6053 11.6383 23.5968 12.2714 23.982 12.6671L28.5756 17.3863L12.0011 17.1628C12.1925 13.5981 13.6497 10.0886 16.3727 7.36558C22.2306 1.50772 31.7281 1.50772 37.5859 7.36558C43.4438 13.2234 43.4438 22.7209 37.586 28.5788C31.7281 34.4366 22.2306 34.4366 16.3727 28.5788C13.747 25.9531 12.2982 22.5961 12.0264 19.1634L28.5487 19.3862L23.8294 23.9798C23.4337 24.365 23.4251 24.9981 23.8104 25.3939C24.1956 25.7896 24.8287 25.7982 25.2245 25.413L31.6736 19.1354C32.0694 18.7502 32.0779 18.117 31.6927 17.7213ZM10.019 19.1363C10.2888 23.0912 11.9353 26.9698 14.9585 29.993C21.5974 36.6319 32.3613 36.6319 39.0002 29.993C45.6391 23.3541 45.6391 12.5903 39.0002 5.95137C32.3612 -0.687545 21.5974 -0.687544 14.9585 5.95137C11.8518 9.05806 10.1989 13.068 9.99981 17.1359L0.992345 17.0144L0.96538 19.0142L10.019 19.1363Z" fill="white"/>
</svg>
