<svg width="112" height="124" viewBox="0 0 112 124" fill="none" xmlns="http://www.w3.org/2000/svg">
<circle cx="62" cy="62" r="61.5" fill="#F6F8F1" stroke="#EC6C8B"/>
<path d="M54.8353 87.1643C54.7833 87.4355 54.961 87.6975 55.2322 87.7495L59.6517 88.5969C59.9229 88.6489 60.185 88.4712 60.2369 88.2C60.2889 87.9288 60.1112 87.6668 59.84 87.6148L55.9116 86.8616L56.6648 82.9331C56.7168 82.6619 56.5391 82.3999 56.2679 82.3479C55.9967 82.2959 55.7347 82.4736 55.6827 82.7448L54.8353 87.1643ZM72.0761 34.4275C76.5589 51.8433 72.2878 64.9439 66.9087 73.6938C64.2162 78.0735 61.2436 81.3665 58.9454 83.5634C57.7966 84.6615 56.8172 85.4849 56.1271 86.0323C55.7821 86.306 55.5094 86.5107 55.3242 86.6461C55.2315 86.7139 55.1608 86.7643 55.1137 86.7974C55.0902 86.8139 55.0726 86.8262 55.0612 86.834C55.0555 86.838 55.0514 86.8408 55.0488 86.8426C55.0475 86.8435 55.0466 86.8441 55.0461 86.8445C55.0458 86.8446 55.0457 86.8447 55.0456 86.8448C55.0456 86.8448 55.0457 86.8447 55.3264 87.2585C55.607 87.6723 55.6074 87.6721 55.6078 87.6718C55.6081 87.6716 55.6086 87.6713 55.6091 87.6709C55.6102 87.6701 55.6117 87.6691 55.6136 87.6678C55.6173 87.6653 55.6227 87.6616 55.6296 87.6568C55.6433 87.6473 55.6633 87.6334 55.6892 87.6152C55.7411 87.5787 55.8168 87.5248 55.9144 87.4534C56.1097 87.3106 56.3927 87.098 56.7486 86.8158C57.4601 86.2513 58.463 85.4079 59.6364 84.2862C61.9826 82.0435 65.0141 78.6851 67.7606 74.2175C73.2593 65.273 77.605 51.8958 73.0445 34.1783L72.0761 34.4275Z" fill="#EC6C8B"/>
</svg>
