<svg width="633" height="281" viewBox="0 0 633 281" fill="none" xmlns="http://www.w3.org/2000/svg">
<path d="M630.287 213.053C626.51 229.415 614.193 243.047 595.029 253.669C575.866 264.29 549.906 271.869 518.961 276.134C457.075 284.663 375.36 279.921 288.496 259.867C201.632 239.813 126.108 208.254 74.2244 173.459C48.2808 156.06 28.2707 137.868 15.7029 119.921C3.13512 101.974 -1.95905 84.3211 1.81821 67.96C5.59546 51.5989 17.9124 37.966 37.0758 27.3447C56.239 16.7235 82.1991 9.14407 113.144 4.87923C175.03 -3.64995 256.745 1.09218 343.609 21.1464C430.473 41.2006 505.997 72.7597 557.881 107.555C583.824 124.953 603.834 143.146 616.402 161.093C628.97 179.04 634.064 196.692 630.287 213.053Z" stroke="#EC6C8B"/>
</svg>
