<svg width="159" height="29" viewBox="0 0 159 29" fill="none" xmlns="http://www.w3.org/2000/svg">
<path d="M16.42 0.0899992V21H13.69V11.52H3.04V21H0.31V0.0899992H3.04V9.27H13.69V0.0899992H16.42ZM36.0815 12.15C36.0815 12.67 36.0515 13.22 35.9915 13.8H22.8515C22.9515 15.42 23.5015 16.69 24.5015 17.61C25.5215 18.51 26.7515 18.96 28.1915 18.96C29.3715 18.96 30.3515 18.69 31.1315 18.15C31.9315 17.59 32.4915 16.85 32.8115 15.93H35.7515C35.3115 17.51 34.4315 18.8 33.1115 19.8C31.7915 20.78 30.1515 21.27 28.1915 21.27C26.6315 21.27 25.2315 20.92 23.9915 20.22C22.7715 19.52 21.8115 18.53 21.1115 17.25C20.4115 15.95 20.0615 14.45 20.0615 12.75C20.0615 11.05 20.4015 9.56 21.0815 8.28C21.7615 7 22.7115 6.02 23.9315 5.34C25.1715 4.64 26.5915 4.29 28.1915 4.29C29.7515 4.29 31.1315 4.63 32.3315 5.31C33.5315 5.99 34.4515 6.93 35.0915 8.13C35.7515 9.31 36.0815 10.65 36.0815 12.15ZM33.2615 11.58C33.2615 10.54 33.0315 9.65 32.5715 8.91C32.1115 8.15 31.4815 7.58 30.6815 7.2C29.9015 6.8 29.0315 6.6 28.0715 6.6C26.6915 6.6 25.5115 7.04 24.5315 7.92C23.5715 8.8 23.0215 10.02 22.8815 11.58H33.2615ZM53.845 4.56L43.945 28.74H41.125L44.365 20.82L37.735 4.56H40.765L45.925 17.88L51.025 4.56H53.845ZM67.0593 10.23C67.8193 10.35 68.5093 10.66 69.1293 11.16C69.7693 11.66 70.2693 12.28 70.6293 13.02C71.0093 13.76 71.1993 14.55 71.1993 15.39C71.1993 16.45 70.9293 17.41 70.3893 18.27C69.8493 19.11 69.0593 19.78 68.0193 20.28C66.9993 20.76 65.7893 21 64.3893 21H56.5893V0.0899992H64.0893C65.5093 0.0899992 66.7193 0.329999 67.7193 0.809999C68.7193 1.27 69.4693 1.9 69.9693 2.7C70.4693 3.5 70.7193 4.4 70.7193 5.4C70.7193 6.64 70.3793 7.67 69.6993 8.49C69.0393 9.29 68.1593 9.87 67.0593 10.23ZM59.3193 9.12H63.9093C65.1893 9.12 66.1793 8.82 66.8793 8.22C67.5793 7.62 67.9293 6.79 67.9293 5.73C67.9293 4.67 67.5793 3.84 66.8793 3.24C66.1793 2.64 65.1693 2.34 63.8493 2.34H59.3193V9.12ZM64.1493 18.75C65.5093 18.75 66.5693 18.43 67.3293 17.79C68.0893 17.15 68.4693 16.26 68.4693 15.12C68.4693 13.96 68.0693 13.05 67.2693 12.39C66.4693 11.71 65.3993 11.37 64.0593 11.37H59.3193V18.75H64.1493ZM89.9877 12.15C89.9877 12.67 89.9577 13.22 89.8977 13.8H76.7577C76.8577 15.42 77.4077 16.69 78.4077 17.61C79.4277 18.51 80.6577 18.96 82.0977 18.96C83.2777 18.96 84.2577 18.69 85.0377 18.15C85.8377 17.59 86.3977 16.85 86.7177 15.93H89.6577C89.2177 17.51 88.3377 18.8 87.0177 19.8C85.6977 20.78 84.0577 21.27 82.0977 21.27C80.5377 21.27 79.1377 20.92 77.8977 20.22C76.6777 19.52 75.7177 18.53 75.0177 17.25C74.3177 15.95 73.9677 14.45 73.9677 12.75C73.9677 11.05 74.3077 9.56 74.9877 8.28C75.6677 7 76.6177 6.02 77.8377 5.34C79.0777 4.64 80.4977 4.29 82.0977 4.29C83.6577 4.29 85.0377 4.63 86.2377 5.31C87.4377 5.99 88.3577 6.93 88.9977 8.13C89.6577 9.31 89.9877 10.65 89.9877 12.15ZM87.1677 11.58C87.1677 10.54 86.9377 9.65 86.4777 8.91C86.0177 8.15 85.3877 7.58 84.5877 7.2C83.8077 6.8 82.9377 6.6 81.9777 6.6C80.5977 6.6 79.4177 7.04 78.4377 7.92C77.4777 8.8 76.9277 10.02 76.7877 11.58H87.1677ZM92.5713 12.72C92.5713 11.04 92.9113 9.57 93.5913 8.31C94.2713 7.03 95.2013 6.04 96.3813 5.34C97.5813 4.64 98.9113 4.29 100.371 4.29C101.811 4.29 103.061 4.6 104.121 5.22C105.181 5.84 105.971 6.62 106.491 7.56V4.56H109.251V21H106.491V17.94C105.951 18.9 105.141 19.7 104.061 20.34C103.001 20.96 101.761 21.27 100.341 21.27C98.8813 21.27 97.5613 20.91 96.3813 20.19C95.2013 19.47 94.2713 18.46 93.5913 17.16C92.9113 15.86 92.5713 14.38 92.5713 12.72ZM106.491 12.75C106.491 11.51 106.241 10.43 105.741 9.51C105.241 8.59 104.561 7.89 103.701 7.41C102.861 6.91 101.931 6.66 100.911 6.66C99.8913 6.66 98.9613 6.9 98.1213 7.38C97.2813 7.86 96.6113 8.56 96.1113 9.48C95.6113 10.4 95.3613 11.48 95.3613 12.72C95.3613 13.98 95.6113 15.08 96.1113 16.02C96.6113 16.94 97.2813 17.65 98.1213 18.15C98.9613 18.63 99.8913 18.87 100.911 18.87C101.931 18.87 102.861 18.63 103.701 18.15C104.561 17.65 105.241 16.94 105.741 16.02C106.241 15.08 106.491 13.99 106.491 12.75ZM128.445 4.56V21H125.715V18.57C125.195 19.41 124.465 20.07 123.525 20.55C122.605 21.01 121.585 21.24 120.465 21.24C119.185 21.24 118.035 20.98 117.015 20.46C115.995 19.92 115.185 19.12 114.585 18.06C114.005 17 113.715 15.71 113.715 14.19V4.56H116.415V13.83C116.415 15.45 116.825 16.7 117.645 17.58C118.465 18.44 119.585 18.87 121.005 18.87C122.465 18.87 123.615 18.42 124.455 17.52C125.295 16.62 125.715 15.31 125.715 13.59V4.56H128.445ZM136.384 6.81V16.5C136.384 17.3 136.554 17.87 136.894 18.21C137.234 18.53 137.824 18.69 138.664 18.69H140.674V21H138.214C136.694 21 135.554 20.65 134.794 19.95C134.034 19.25 133.654 18.1 133.654 16.5V6.81H131.524V4.56H133.654V0.419999H136.384V4.56H140.674V6.81H136.384ZM158.142 4.56L148.242 28.74H145.422L148.662 20.82L142.032 4.56H145.062L150.222 17.88L155.322 4.56H158.142Z" fill="#585858"/>
</svg>
