<svg width="27" height="28" viewBox="0 0 27 28" fill="none" xmlns="http://www.w3.org/2000/svg">
<path d="M3.4149 12.9032H5.58906C6.18198 12.9032 6.75062 13.1388 7.16989 13.558C7.58915 13.9773 7.82469 14.5459 7.82469 15.1389V16.2567C7.82469 16.8496 8.06023 17.4182 8.47949 17.8375C8.89875 18.2568 9.46739 18.4923 10.0603 18.4923C10.6532 18.4923 11.2219 18.7278 11.6412 19.1471C12.0604 19.5664 12.296 20.135 12.296 20.7279V24.0199M8.9425 5.00585V6.75523C8.9425 7.49639 9.23693 8.20719 9.76101 8.73127C10.2851 9.25535 10.9959 9.54977 11.737 9.54977H12.296C12.8889 9.54977 13.4575 9.78531 13.8768 10.2046C14.296 10.6238 14.5316 11.1925 14.5316 11.7854C14.5316 12.3783 14.7671 12.947 15.1864 13.3662C15.6056 13.7855 16.1743 14.021 16.7672 14.021C17.3601 14.021 17.9288 13.7855 18.348 13.3662C18.7673 12.947 19.0028 12.3783 19.0028 11.7854C19.0028 11.1925 19.2384 10.6238 19.6577 10.2046C20.0769 9.78531 20.6456 9.54977 21.2385 9.54977H22.4278M16.7672 23.5091V20.7279C16.7672 20.135 17.0028 19.5664 17.422 19.1471C17.8413 18.7278 18.4099 18.4923 19.0028 18.4923H22.4278M23.4741 14.021C23.4741 15.3422 23.2139 16.6504 22.7083 17.871C22.2027 19.0915 21.4617 20.2006 20.5275 21.1348C19.5933 22.069 18.4843 22.81 17.2637 23.3156C16.0431 23.8212 14.7349 24.0814 13.4138 24.0814C12.0926 24.0814 10.7844 23.8212 9.56384 23.3156C8.34326 22.81 7.23422 22.069 6.30003 21.1348C5.36584 20.2006 4.6248 19.0915 4.11922 17.871C3.61364 16.6504 3.35342 15.3422 3.35342 14.021C3.35342 11.3529 4.41335 8.79398 6.30003 6.9073C8.18671 5.02062 10.7456 3.96069 13.4138 3.96069C16.0819 3.96069 18.6408 5.02062 20.5275 6.9073C22.4142 8.79398 23.4741 11.3529 23.4741 14.021Z" stroke="#EC6C8B" stroke-width="2" stroke-linecap="round" stroke-linejoin="round"/>
</svg>
