<svg width="27" height="28" viewBox="0 0 27 28" fill="none" xmlns="http://www.w3.org/2000/svg">
<path d="M8.94227 12.9789V8.50764C8.94227 7.32179 9.41335 6.1845 10.2519 5.34598C11.0904 4.50746 12.2277 4.03638 13.4135 4.03638C14.5994 4.03638 15.7367 4.50746 16.5752 5.34598C17.4137 6.1845 17.8848 7.32179 17.8848 8.50764M13.4135 17.4502V19.6858M6.70664 24.1571H20.1204C20.7134 24.1571 21.282 23.9215 21.7013 23.5023C22.1205 23.083 22.3561 22.5144 22.3561 21.9214V15.2145C22.3561 14.6216 22.1205 14.053 21.7013 13.6337C21.282 13.2144 20.7134 12.9789 20.1204 12.9789H6.70664C6.11371 12.9789 5.54507 13.2144 5.12581 13.6337C4.70655 14.053 4.47101 14.6216 4.47101 15.2145V21.9214C4.47101 22.5144 4.70655 23.083 5.12581 23.5023C5.54507 23.9215 6.11371 24.1571 6.70664 24.1571Z" stroke="#EC6C8B" stroke-width="2" stroke-linecap="round" stroke-linejoin="round"/>
</svg>
