<svg width="105" height="20" viewBox="0 0 105 20" fill="none" xmlns="http://www.w3.org/2000/svg">
<path d="M10.98 0.0199988V14H9.58V7.46H2V14H0.6V0.0199988H2V6.3H9.58V0.0199988H10.98ZM24.0542 7.98C24.0542 8.46 24.0409 8.82667 24.0142 9.08H14.9542C14.9942 9.90667 15.1942 10.6133 15.5542 11.2C15.9142 11.7867 16.3876 12.2333 16.9742 12.54C17.5609 12.8333 18.2009 12.98 18.8942 12.98C19.8009 12.98 20.5609 12.76 21.1742 12.32C21.8009 11.88 22.2142 11.2867 22.4142 10.54H23.8942C23.6276 11.6067 23.0542 12.48 22.1742 13.16C21.3076 13.8267 20.2142 14.16 18.8942 14.16C17.8676 14.16 16.9476 13.9333 16.1342 13.48C15.3209 13.0133 14.6809 12.36 14.2142 11.52C13.7609 10.6667 13.5342 9.67333 13.5342 8.54C13.5342 7.40667 13.7609 6.41333 14.2142 5.56C14.6676 4.70667 15.3009 4.05333 16.1142 3.6C16.9276 3.14667 17.8542 2.92 18.8942 2.92C19.9342 2.92 20.8409 3.14667 21.6142 3.6C22.4009 4.05333 23.0009 4.66667 23.4142 5.44C23.8409 6.2 24.0542 7.04667 24.0542 7.98ZM22.6342 7.94C22.6476 7.12667 22.4809 6.43333 22.1342 5.86C21.8009 5.28667 21.3409 4.85333 20.7542 4.56C20.1676 4.26667 19.5276 4.12 18.8342 4.12C17.7942 4.12 16.9076 4.45333 16.1742 5.12C15.4409 5.78667 15.0342 6.72667 14.9542 7.94H22.6342ZM35.6156 3.08L29.1356 19.14H27.6756L29.7956 13.94L25.3156 3.08H26.8556L30.5756 12.4L34.1756 3.08H35.6156Z" fill="#585858"/>
<path d="M44.0541 6.78C44.8407 6.92667 45.5074 7.32667 46.0541 7.98C46.6007 8.63333 46.8741 9.39333 46.8741 10.26C46.8741 10.9667 46.6941 11.6067 46.3341 12.18C45.9874 12.74 45.4741 13.1867 44.7941 13.52C44.1141 13.84 43.3007 14 42.3541 14H37.5141V0.0199988H42.2141C43.6274 0.0199988 44.7007 0.346666 45.4341 0.999999C46.1807 1.65333 46.5541 2.5 46.5541 3.54C46.5541 4.40667 46.3207 5.11333 45.8541 5.66C45.3874 6.19333 44.7874 6.56667 44.0541 6.78ZM38.9141 6.2H42.1741C43.1207 6.2 43.8474 5.98 44.3541 5.54C44.8741 5.08667 45.1341 4.46667 45.1341 3.68C45.1341 2.90667 44.8741 2.3 44.3541 1.86C43.8474 1.42 43.1007 1.2 42.1141 1.2H38.9141V6.2ZM42.2541 12.82C43.2674 12.82 44.0541 12.58 44.6141 12.1C45.1874 11.62 45.4741 10.96 45.4741 10.12C45.4741 9.28 45.1741 8.61333 44.5741 8.12C43.9874 7.61333 43.1941 7.36 42.1941 7.36H38.9141V12.82H42.2541ZM59.3277 7.98C59.3277 8.46 59.3143 8.82667 59.2877 9.08H50.2277C50.2677 9.90667 50.4677 10.6133 50.8277 11.2C51.1877 11.7867 51.661 12.2333 52.2477 12.54C52.8343 12.8333 53.4743 12.98 54.1677 12.98C55.0743 12.98 55.8343 12.76 56.4477 12.32C57.0743 11.88 57.4877 11.2867 57.6877 10.54H59.1677C58.901 11.6067 58.3277 12.48 57.4477 13.16C56.581 13.8267 55.4877 14.16 54.1677 14.16C53.141 14.16 52.221 13.9333 51.4077 13.48C50.5943 13.0133 49.9543 12.36 49.4877 11.52C49.0343 10.6667 48.8077 9.67333 48.8077 8.54C48.8077 7.40667 49.0343 6.41333 49.4877 5.56C49.941 4.70667 50.5743 4.05333 51.3877 3.6C52.201 3.14667 53.1277 2.92 54.1677 2.92C55.2077 2.92 56.1143 3.14667 56.8877 3.6C57.6743 4.05333 58.2743 4.66667 58.6877 5.44C59.1143 6.2 59.3277 7.04667 59.3277 7.98ZM57.9077 7.94C57.921 7.12667 57.7543 6.43333 57.4077 5.86C57.0743 5.28667 56.6143 4.85333 56.0277 4.56C55.441 4.26667 54.801 4.12 54.1077 4.12C53.0677 4.12 52.181 4.45333 51.4477 5.12C50.7143 5.78667 50.3077 6.72667 50.2277 7.94H57.9077ZM61.2491 8.52C61.2491 7.4 61.4691 6.42 61.9091 5.58C62.3624 4.72667 62.9824 4.07333 63.7691 3.62C64.5691 3.15333 65.4691 2.92 66.4691 2.92C67.5091 2.92 68.4024 3.16 69.1491 3.64C69.9091 4.12 70.4557 4.73333 70.7891 5.48V3.08H72.1891V14H70.7891V11.58C70.4424 12.3267 69.8891 12.9467 69.1291 13.44C68.3824 13.92 67.4891 14.16 66.4491 14.16C65.4624 14.16 64.5691 13.9267 63.7691 13.46C62.9824 12.9933 62.3624 12.3333 61.9091 11.48C61.4691 10.6267 61.2491 9.64 61.2491 8.52ZM70.7891 8.54C70.7891 7.66 70.6091 6.88667 70.2491 6.22C69.8891 5.55333 69.3957 5.04 68.7691 4.68C68.1557 4.32 67.4757 4.14 66.7291 4.14C65.9557 4.14 65.2624 4.31333 64.6491 4.66C64.0357 5.00667 63.5491 5.51333 63.1891 6.18C62.8424 6.83333 62.6691 7.61333 62.6691 8.52C62.6691 9.41333 62.8424 10.2 63.1891 10.88C63.5491 11.5467 64.0357 12.06 64.6491 12.42C65.2624 12.7667 65.9557 12.94 66.7291 12.94C67.4757 12.94 68.1557 12.76 68.7691 12.4C69.3957 12.04 69.8891 11.5267 70.2491 10.86C70.6091 10.1933 70.7891 9.42 70.7891 8.54ZM84.8452 3.08V14H83.4452V12.08C83.1252 12.76 82.6318 13.28 81.9652 13.64C81.2985 14 80.5518 14.18 79.7252 14.18C78.4185 14.18 77.3518 13.78 76.5252 12.98C75.6985 12.1667 75.2852 10.9933 75.2852 9.46V3.08H76.6652V9.3C76.6652 10.4867 76.9585 11.3933 77.5452 12.02C78.1452 12.6467 78.9585 12.96 79.9852 12.96C81.0385 12.96 81.8785 12.6267 82.5052 11.96C83.1318 11.2933 83.4452 10.3133 83.4452 9.02V3.08H84.8452ZM89.8614 4.26V11.04C89.8614 11.7067 89.9881 12.1667 90.2414 12.42C90.4947 12.6733 90.9414 12.8 91.5814 12.8H92.8614V14H91.3614C90.3747 14 89.6414 13.7733 89.1614 13.32C88.6814 12.8533 88.4414 12.0933 88.4414 11.04V4.26H86.9214V3.08H88.4414V0.339999H89.8614V3.08H92.8614V4.26H89.8614ZM104.17 3.08L97.6903 19.14H96.2303L98.3503 13.94L93.8703 3.08H95.4103L99.1303 12.4L102.73 3.08H104.17Z" fill="#EC6C8B"/>
</svg>
